<svg width="14" height="14" viewBox="0 0 14 14" fill="none" xmlns="http://www.w3.org/2000/svg">
<path d="M3.58566 10.4143H2.23687C1.89969 10.3863 1.58538 10.2325 1.35627 9.98351C1.12716 9.73454 1 9.40855 1 9.0702C1 8.73185 1.12716 8.40586 1.35627 8.15689C1.58538 7.90791 1.89969 7.75414 2.23687 7.72606H4.37633L5.75302 6.34937L1.97642 4.02387C1.68567 3.84414 1.47401 3.56072 1.38422 3.23091C1.29443 2.90111 1.33321 2.54951 1.49271 2.24719C1.56313 2.07418 1.66824 1.91743 1.80157 1.7866C1.9349 1.65578 2.09362 1.55366 2.26795 1.48655C2.44227 1.41944 2.62849 1.38875 2.81512 1.39639C3.00176 1.40402 3.18486 1.44981 3.35311 1.53094L8.28316 3.80993L10.6645 1.40071C10.921 1.14414 11.269 1 11.6319 1C11.9947 1 12.3427 1.14414 12.5993 1.40071C12.8559 1.65729 13 2.00527 13 2.36812C13 2.73097 12.8559 3.07895 12.5993 3.33553L10.1901 5.71683L12.4691 10.6934C12.544 10.8591 12.5849 11.0382 12.5894 11.2201C12.5938 11.4019 12.5617 11.5828 12.4949 11.7519C12.4281 11.9211 12.328 12.0752 12.2005 12.2049C12.073 12.3347 11.9208 12.4375 11.7528 12.5073C11.4505 12.6668 11.0989 12.7056 10.7691 12.6158C10.4393 12.526 10.1559 12.3143 9.97613 12.0236L7.65063 8.24698L6.27394 9.62367V11.7631C6.24586 12.1003 6.09209 12.4146 5.84311 12.6437C5.59414 12.8728 5.26815 13 4.9298 13C4.59145 13 4.26546 12.8728 4.01649 12.6437C3.76751 12.4146 3.61374 12.1003 3.58566 11.7631V10.4143Z" stroke="#222222" stroke-linecap="round" stroke-linejoin="round"/>
</svg>
