<svg width="26" height="26" viewBox="0 0 26 26" fill="none" xmlns="http://www.w3.org/2000/svg">
<rect width="26" height="26" fill="white"/>
<g clip-path="url(#clip0_98_15461)">
<path d="M9.07109 15.6016C8.41109 15.6016 7.87109 16.1416 7.87109 16.8016C7.87109 17.4616 8.41109 18.0016 9.07109 18.0016C9.73109 18.0016 10.2711 17.4616 10.2711 16.8016C10.2711 16.1416 9.73109 15.6016 9.07109 15.6016Z" fill="black"/>
<path d="M22.68 10.06C22.52 9.85 22.29 9.79 22.09 9.77L21.86 9.75V7.62C21.86 5.62 20.24 4 18.25 4H8.59C6.59 4 4.97 5.63 4.97 7.62V9.8H4.66C4.48 9.82 4.32 9.9 4.19 10.03C4.07 10.16 4 10.34 4 10.52V12.45C4 12.64 4.08 12.83 4.21 12.96C4.35 13.1 4.53 13.17 4.71 13.17H4.96V19.22C4.96 19.83 5.3 20.37 5.8 20.67L5.92 20.74V22.12C5.92 22.31 6 22.5 6.13 22.63C6.27 22.77 6.45 22.84 6.63 22.84H7.6C7.79 22.84 7.97 22.76 8.1 22.63C8.24 22.49 8.31 22.31 8.31 22.12V20.9H18.47V22.12C18.47 22.31 18.55 22.49 18.68 22.62C18.82 22.76 19 22.84 19.18 22.84H20.15C20.34 22.84 20.52 22.76 20.65 22.63C20.79 22.49 20.86 22.31 20.86 22.12V20.74L20.98 20.67C21.24 20.52 21.45 20.31 21.6 20.06C21.75 19.81 21.83 19.51 21.83 19.22V13.18H22.08C22.27 13.18 22.46 13.1 22.58 12.97C22.72 12.83 22.79 12.65 22.79 12.46V10.57C22.79 10.45 22.79 10.34 22.74 10.24L22.67 10.07L22.68 10.06ZM6.71 6.53C7.09 5.89 7.78 5.44 8.59 5.44H18.25C19.05 5.44 19.75 5.88 20.13 6.53L20.35 6.9H6.49L6.71 6.52V6.53ZM6.41 8.34H12.7V12.71H6.41V8.33V8.34ZM20.43 19.46H6.41V14.13H20.43V19.46ZM20.43 12.7H14.14V8.33H20.43V12.7Z" fill="black"/>
<path d="M17.7586 17.9937C18.4186 17.9937 18.9586 17.4537 18.9586 16.7937C18.9586 16.1337 18.4186 15.5938 17.7586 15.5938C17.0986 15.5938 16.5586 16.1337 16.5586 16.7937C16.5586 17.4537 17.0986 17.9937 17.7586 17.9937Z" fill="black"/>
</g>
<defs>
<clipPath id="clip0_98_15461">
<rect width="18.8" height="18.82" fill="white" transform="translate(4 4)"/>
</clipPath>
</defs>
</svg>
