<svg width="28" height="28" viewBox="0 0 28 28" fill="none" xmlns="http://www.w3.org/2000/svg">
<rect width="28" height="28" fill="white"/>
<g clip-path="url(#clip0_98_15473)">
<path d="M6.07 10.25H4V11.7H5.75V17.97C5.75 18.39 5.92 18.8 6.22 19.1C6.52 19.4 6.93 19.57 7.35 19.57H7.5V22.19H8.95V19.57H19.75V22.19H21.2V19.57H21.35C21.77 19.57 22.18 19.4 22.48 19.1C22.78 18.8 22.95 18.39 22.95 17.97V11.7H24.7V10.25H22.5L22.47 10.14L21.36 6.16C21.26 5.83 21.06 5.53 20.78 5.32C20.5 5.11 20.16 5 19.82 5H8.89C8.54 5 8.2 5.11 7.93 5.32C7.65 5.53 7.45 5.82 7.35 6.16L6.21 10.14L6.18 10.25H6.07ZM7.5 10.93L8.74 6.56L8.77 6.45H19.93L19.96 6.56L21.21 10.94L21.26 11.13H7.44L7.49 10.94L7.5 10.93ZM7.21 17.97V16.07H8.96V14.62H7.21V12.57H21.51V14.62H19.76V16.07H21.51V18.12H7.2V17.97H7.21Z" fill="#222222"/>
<path d="M16.8289 14.6172H11.8789V16.0672H16.8289V14.6172Z" fill="#222222"/>
</g>
<defs>
<clipPath id="clip0_98_15473">
<rect width="20.7" height="17.2" fill="white" transform="translate(4 5)"/>
</clipPath>
</defs>
</svg>
