<svg width="24" height="24" viewBox="0 0 24 24" fill="none" xmlns="http://www.w3.org/2000/svg">
<path d="M20.8382 4.61183C20.3274 4.10083 19.721 3.69547 19.0535 3.41891C18.3861 3.14235 17.6707 3 16.9482 3C16.2257 3 15.5103 3.14235 14.8428 3.41891C14.1754 3.69547 13.5689 4.10083 13.0582 4.61183L11.9982 5.67183L10.9382 4.61183C9.90647 3.58013 8.5072 3.00053 7.04817 3.00053C5.58913 3.00053 4.18986 3.58013 3.15817 4.61183C2.12647 5.64352 1.54688 7.04279 1.54688 8.50183C1.54687 9.96086 2.12647 11.3601 3.15817 12.3918L4.21817 13.4518L11.9982 21.2318L19.7782 13.4518L20.8382 12.3918C21.3492 11.8811 21.7545 11.2746 22.0311 10.6072C22.3076 9.93972 22.45 9.22431 22.45 8.50183C22.45 7.77934 22.3076 7.06393 22.0311 6.39647C21.7545 5.72901 21.3492 5.12258 20.8382 4.61183V4.61183Z" stroke="white" stroke-width="2" stroke-linecap="round" stroke-linejoin="round"/>
</svg>
