<svg width="20" height="20" viewBox="0 0 20 20" fill="none" xmlns="http://www.w3.org/2000/svg">
<path d="M8.57856 3.21635L1.52022 14.9997C1.3747 15.2517 1.2977 15.5374 1.29688 15.8284C1.29607 16.1195 1.37147 16.4056 1.51558 16.6585C1.65969 16.9113 1.8675 17.122 2.11831 17.2696C2.36913 17.4171 2.65422 17.4965 2.94522 17.4997H17.0619C17.3529 17.4965 17.638 17.4171 17.8888 17.2696C18.1396 17.122 18.3474 16.9113 18.4915 16.6585C18.6356 16.4056 18.711 16.1195 18.7102 15.8284C18.7094 15.5374 18.6324 15.2517 18.4869 14.9997L11.4286 3.21635C11.28 2.97144 11.0708 2.76895 10.8212 2.62842C10.5716 2.48789 10.29 2.41406 10.0036 2.41406C9.71711 2.41406 9.4355 2.48789 9.18589 2.62842C8.93629 2.76895 8.72712 2.97144 8.57856 3.21635V3.21635Z" stroke="#222222" stroke-width="2" stroke-linecap="round" stroke-linejoin="round"/>
<path d="M10 7.5V10.8333" stroke="#222222" stroke-width="2" stroke-linecap="round" stroke-linejoin="round"/>
<path d="M10 14.1641H10.0083" stroke="#222222" stroke-width="2" stroke-linecap="round" stroke-linejoin="round"/>
</svg>
