<svg width="20" height="20" viewBox="0 0 20 20" fill="none" xmlns="http://www.w3.org/2000/svg">
<path d="M10.3333 18.6667C14.9357 18.6667 18.6667 14.9357 18.6667 10.3333C18.6667 5.73096 14.9357 2 10.3333 2C5.73096 2 2 5.73096 2 10.3333C2 14.9357 5.73096 18.6667 10.3333 18.6667Z" stroke="#222222" stroke-width="2" stroke-linecap="round" stroke-linejoin="round"/>
<path d="M10 14.1641H10.0083" stroke="#222222" stroke-width="2" stroke-linecap="round" stroke-linejoin="round"/>
<path d="M7.57812 7.49852C7.77405 6.94158 8.16075 6.47194 8.66975 6.1728C9.17876 5.87365 9.7772 5.7643 10.3591 5.86411C10.941 5.96393 11.4688 6.26646 11.849 6.71813C12.2292 7.1698 12.4373 7.74146 12.4365 8.33185C12.4365 9.99852 9.93646 10.8319 9.93646 10.8319" stroke="#222222" stroke-width="2" stroke-linecap="round" stroke-linejoin="round"/>
</svg>
