<svg width="24" height="24" viewBox="0 0 24 24" fill="none" xmlns="http://www.w3.org/2000/svg">
<path d="M12.3984 22.3984C17.9213 22.3984 22.3984 17.9213 22.3984 12.3984C22.3984 6.87559 17.9213 2.39844 12.3984 2.39844C6.87559 2.39844 2.39844 6.87559 2.39844 12.3984C2.39844 17.9213 6.87559 22.3984 12.3984 22.3984Z" stroke="#222222" stroke-width="1.5" stroke-linecap="round" stroke-linejoin="round"/>
<path d="M12 17H12.01" stroke="#222222" stroke-width="1.5" stroke-linecap="round" stroke-linejoin="round"/>
<path d="M9.09375 8.99666C9.32885 8.32833 9.7929 7.76477 10.4037 7.4058C11.0145 7.04682 11.7326 6.9156 12.4309 7.03538C13.1292 7.15515 13.7626 7.51819 14.2188 8.06019C14.6751 8.60219 14.9248 9.28819 14.9238 9.99666C14.9238 11.9967 11.9238 12.9967 11.9238 12.9967" stroke="#222222" stroke-width="1.5" stroke-linecap="round" stroke-linejoin="round"/>
</svg>
