<svg width="19" height="18" viewBox="0 0 19 18" fill="none" xmlns="http://www.w3.org/2000/svg">
<path d="M8.07812 8.17648C7.69024 7.25923 7.57582 6.24941 7.74863 5.26863C7.92144 4.28785 8.37412 3.37794 9.05214 2.64851C9.73016 1.91907 10.6046 1.40121 11.5702 1.1573C12.5357 0.913392 13.5512 0.953833 14.4943 1.27375C15.4374 1.59368 16.2679 2.17943 16.8858 2.96048C17.5036 3.74152 17.8825 4.68454 17.9768 5.67596C18.0711 6.66737 17.8767 7.6649 17.4171 8.5484C16.9575 9.43189 16.2523 10.1637 15.3864 10.6556" stroke="black" stroke-linecap="round" stroke-linejoin="round"/>
<path d="M12.8203 6.13995L10.8835 4.20312" stroke="black" stroke-linecap="round" stroke-linejoin="round"/>
<path d="M2.76514 8.72282L4.13383 9.09727C4.22252 9.12455 4.30029 9.17924 4.35596 9.25347C4.41164 9.32771 4.44236 9.41767 4.44372 9.51046V11.189L10.1251 11.8605C10.5899 11.8819 11.0445 12.0044 11.4572 12.2195C11.8699 12.4345 12.2308 12.7369 12.5147 13.1056C12.7986 13.4743 12.9987 13.9005 13.1012 14.3545C13.2036 14.8084 13.2058 15.2792 13.1078 15.7341C13.0795 15.8457 13.029 15.9504 12.9592 16.0419C12.8893 16.1334 12.8017 16.2098 12.7016 16.2665C12.6014 16.3232 12.4908 16.359 12.3764 16.3718C12.2621 16.3847 12.1463 16.3742 12.0361 16.341L8.61434 15.4242L8.31737 15.3984L6.60005 16.8833C6.53994 16.9335 6.46896 16.9689 6.39275 16.9868C6.31655 17.0048 6.23721 17.0047 6.16104 16.9866L4.61158 16.5605C4.5299 16.5419 4.45477 16.5015 4.39414 16.4437C4.33351 16.3859 4.28963 16.3128 4.26714 16.2321C4.24465 16.1514 4.24439 16.0661 4.26638 15.9853C4.28837 15.9044 4.3318 15.831 4.39207 15.7729L5.46378 14.6366L5.24427 14.572L1.90003 13.6682C1.68034 13.6131 1.49102 13.474 1.37272 13.2809C1.25442 13.0878 1.21658 12.8559 1.26733 12.6352L2.24866 9.00689C2.28416 8.90389 2.35668 8.81778 2.45213 8.76528C2.54759 8.71278 2.65915 8.69765 2.76514 8.72282Z" stroke="black" stroke-linecap="round" stroke-linejoin="round"/>
</svg>
