<svg width="21" height="12" viewBox="0 0 21 12" fill="none" xmlns="http://www.w3.org/2000/svg">
<path d="M1.19291 3.39071L3.22344 2.80664C3.35994 2.76852 3.50637 2.76979 3.64202 2.81029C3.77767 2.85078 3.89567 2.92845 3.97933 3.0323L5.37254 5.01015L13.0204 1.5987C13.6234 1.28197 14.2964 1.08699 14.9923 1.02736C15.6882 0.967734 16.3902 1.04491 17.0494 1.25348C17.7085 1.46206 18.3089 1.79701 18.8085 2.23494C19.3081 2.67287 19.695 3.20322 19.942 3.78893C20.0439 4.08465 20.0106 4.40452 19.8494 4.67828C19.6883 4.95205 19.4124 5.15734 19.0823 5.24908L14.0579 6.70924L13.554 6.85525L12.6054 9.76229C12.5766 9.86272 12.519 9.9547 12.4385 10.0292C12.3579 10.1037 12.2571 10.1581 12.1459 10.1871L9.86343 10.8508C9.74365 10.8971 9.61194 10.9131 9.48271 10.8969C9.35348 10.8807 9.23171 10.833 9.13072 10.759C9.02973 10.685 8.95341 10.5876 8.91011 10.4773C8.86681 10.3671 8.8582 10.2483 8.88521 10.134L9.3595 8.0632L9.03343 8.15612L4.12754 9.57645C3.96902 9.62911 3.80038 9.653 3.63145 9.64672C3.46251 9.64044 3.29667 9.60413 3.14356 9.53989C2.99045 9.47565 2.85314 9.38477 2.73962 9.27254C2.62611 9.16032 2.53866 9.02899 2.48237 8.8862L0.763088 4.10751C0.716591 3.96143 0.735464 3.80487 0.815708 3.67105C0.895954 3.53723 1.03126 3.43667 1.19291 3.39071Z" fill="white" stroke="#ACACAC" stroke-linecap="round" stroke-linejoin="round"/>
</svg>
