<svg width="38" height="38" viewBox="0 0 38 38" fill="none" xmlns="http://www.w3.org/2000/svg">
<circle cx="19" cy="19" r="19" fill="#E5F3FD"/>
<path d="M23.18 21.38L21.46 19.48L19.7 21.12L21.58 23.12C20.8 23.68 20.2 23.94 18.74 23.98C15.7 23.98 13.68 21.68 13.68 18.8C13.68 15.9 15.7 13.6 18.74 13.6C21.8 13.6 23.84 15.9 23.84 18.8C23.78 19.94 23.64 20.56 23.18 21.38ZM11.3 18.8C11.3 22.96 14.34 26.38 18.74 26.38C20.88 26.38 21.94 25.86 23.22 24.86L24.66 26.42L26.4 24.78L24.86 23.16C25.7 21.84 26.14 20.56 26.2 18.8C26.2 14.62 23.14 11.2 18.74 11.2C14.34 11.2 11.3 14.62 11.3 18.8Z" fill="#45AAF2"/>
</svg>
