<svg width="19" height="18" viewBox="0 0 19 18" fill="none" xmlns="http://www.w3.org/2000/svg">
<path d="M11.0502 8.28283C11.354 7.56965 11.4955 6.79788 11.4646 6.02331C11.4336 5.24874 11.2309 4.49073 10.8712 3.80407C10.5114 3.11741 10.0036 2.51927 9.38441 2.05289C8.76521 1.58651 8.05012 1.26354 7.29083 1.10733C6.53155 0.951124 5.74704 0.965582 4.99402 1.14966C4.241 1.33374 3.5383 1.68284 2.93671 2.17172C2.33511 2.66059 1.84967 3.27704 1.51546 3.97649C1.18125 4.67593 1.00664 5.4409 1.00424 6.21608C1.0037 6.9034 1.13858 7.58408 1.40118 8.21925C1.66378 8.85443 2.04895 9.43164 2.53468 9.91791" stroke="#222222" stroke-linecap="round" stroke-linejoin="round"/>
<path d="M6.22656 6.2121L4.26446 4.25" stroke="#222222" stroke-linecap="round" stroke-linejoin="round"/>
<path d="M5.23315 11.3647L6.54122 10.9199C6.64889 10.8762 6.76941 10.8763 6.87698 10.9203C6.98455 10.9643 7.07062 11.0487 7.11677 11.1554L8.07165 12.6335L13.3039 10.0173C13.7108 9.78406 14.1634 9.64142 14.6305 9.59918C15.0976 9.55693 15.5684 9.61608 16.0106 9.77258C16.4528 9.92908 16.8559 10.1792 17.1925 10.5059C17.529 10.8326 17.7911 11.2282 17.9606 11.6655C17.995 11.7772 18.007 11.8945 17.9961 12.0108C17.9851 12.1271 17.9513 12.2401 17.8966 12.3434C17.842 12.4466 17.7675 12.5381 17.6775 12.6126C17.5875 12.687 17.4837 12.743 17.372 12.7774L13.958 13.8761L13.6179 13.9808L12.9769 16.1914C12.9563 16.2679 12.9168 16.338 12.8619 16.3952C12.807 16.4524 12.7386 16.4947 12.663 16.5184L11.1194 17.0155C11.0394 17.042 10.9539 17.0472 10.8713 17.0305C10.7887 17.0138 10.7118 16.9759 10.6484 16.9204C10.585 16.8649 10.5371 16.7937 10.5096 16.7141C10.4821 16.6344 10.4759 16.5489 10.4916 16.4661L10.8055 14.9095L10.5831 14.9749L7.24757 16.0606C7.02898 16.136 6.78946 16.1219 6.5812 16.0214C6.37294 15.921 6.21282 15.7423 6.13572 15.5243L4.95846 11.901C4.92859 11.7934 4.94025 11.6786 4.99114 11.5792C5.04203 11.4799 5.12841 11.4033 5.23315 11.3647V11.3647Z" stroke="#222222" stroke-linecap="round" stroke-linejoin="round"/>
</svg>
