<svg width="25" height="24" viewBox="0 0 25 24" fill="none" xmlns="http://www.w3.org/2000/svg">
<path d="M12.5 0C5.59582 0 0 4.58003 0 10.2324C0 13.7362 2.15136 16.8275 5.42798 18.6737L4.52395 23.6622C4.47818 23.9097 4.74519 24.0943 4.95117 23.9529L10.3219 20.3116C10.3219 20.3116 11.7562 20.4687 12.5 20.4687C19.4042 20.4687 25 15.8887 25 10.2363C25 4.58396 19.4042 0 12.5 0Z" fill="#3B1E1D"/>
<path d="M7.43755 7.38281H3.83288C3.49339 7.38281 3.21875 7.66563 3.21875 8.01915C3.21875 8.37266 3.49339 8.65548 3.83288 8.65548H5.00392V13.1334C5.00392 13.2944 5.06877 13.4555 5.17939 13.5733C5.29 13.6872 5.44258 13.754 5.59898 13.754H5.72867C5.88506 13.754 6.03764 13.6872 6.14826 13.5733C6.25888 13.4555 6.32372 13.2984 6.32372 13.1334V8.65548H7.42992C7.76941 8.65548 8.04405 8.36874 8.04405 8.01915C8.04405 7.66956 7.76941 7.38281 7.42992 7.38281H7.43755Z" fill="#FCE44D"/>
<path d="M15.8692 12.5526H14.1946V7.98039C14.1946 7.59937 13.8971 7.28906 13.5309 7.28906C13.1647 7.28906 12.8672 7.59545 12.8672 7.98039V13.13C12.8672 13.4481 13.1151 13.7074 13.4241 13.7074H15.873C16.182 13.7074 16.4299 13.4481 16.4299 13.13C16.4299 12.8118 16.182 12.5526 15.873 12.5526H15.8692Z" fill="#FCE44D"/>
<path d="M21.2451 12.7686L19.3798 10.2232L21.0658 8.47134C21.2947 8.23566 21.2947 7.85072 21.0658 7.61504C20.8369 7.37936 20.4669 7.37936 20.2381 7.61504L18.1477 9.78329V7.9882C18.1477 7.60719 17.8502 7.29688 17.484 7.29688C17.1178 7.29688 16.8203 7.60326 16.8203 7.9882V13.071C16.8203 13.452 17.1178 13.7623 17.484 13.7623C17.8502 13.7623 18.1477 13.452 18.1477 13.071V11.5037L18.5254 11.111L20.2915 13.5149C20.486 13.7859 20.8598 13.8409 21.123 13.6366C21.3862 13.4324 21.4396 13.0435 21.2413 12.7725L21.2451 12.7686Z" fill="#FCE44D"/>
<path d="M12.4613 12.9296L10.6647 7.83112H10.6571C10.5426 7.51689 10.2108 7.28906 9.81406 7.28906C9.7187 7.28906 9.61952 7.30085 9.52797 7.33227C9.44024 7.35977 9.35632 7.39905 9.28003 7.45011C9.20756 7.49725 9.14271 7.56009 9.0855 7.62687C9.04735 7.67401 9.01684 7.72507 8.99395 7.77613C8.97106 7.82327 8.88333 8.08252 8.85663 8.165L8.82611 8.25142L8.78797 8.35355L8.74601 8.47139L8.70024 8.60101L8.64683 8.74635L8.58962 8.90346L8.52859 9.06844L8.46755 9.2452L8.40271 9.42981L8.33405 9.61836L8.26539 9.81476L8.19291 10.0151L8.12044 10.2154L8.04796 10.4197L7.97549 10.6239L7.90301 10.8282L7.83054 11.0285L7.75806 11.2249L7.6894 11.4174L7.62074 11.6059L7.5559 11.7866L7.49487 11.9594L7.43765 12.1205L7.38425 12.2697L7.33466 12.4072L7.28888 12.5329L7.25074 12.6429L7.21641 12.7372L7.18971 12.8157L7.16682 12.8747L7.15156 12.9139L7.14393 12.9336C7.03331 13.2557 7.19734 13.6092 7.50631 13.7231C7.81528 13.837 8.15858 13.6681 8.26539 13.346L8.57054 12.4426H11.0271L11.3322 13.346C11.4428 13.6681 11.7823 13.837 12.0913 13.7231C12.4003 13.6092 12.5643 13.2557 12.4575 12.9336L12.4613 12.9296ZM8.96343 11.2799L9.78736 8.83669C9.78736 8.83669 9.80643 8.83669 9.81406 8.83669L10.638 11.2799H8.95962H8.96343Z" fill="#FCE44D"/>
</svg>
