<svg width="26" height="26" viewBox="0 0 26 26" fill="none" xmlns="http://www.w3.org/2000/svg">
<g clip-path="url(#clip0_98_4432)">
<path d="M13.44 2.75C7.53 2.75 2.75 6.55 2.75 11.25C2.75 14.16 4.59 16.73 7.39 18.26L6.62 22.4C6.58 22.61 6.81 22.76 6.98 22.64L11.57 19.62C11.57 19.62 12.8 19.75 13.43 19.75C19.33 19.75 24.12 15.95 24.12 11.25C24.12 6.55 19.34 2.75 13.44 2.75Z" stroke="#222222" stroke-width="1.5" stroke-miterlimit="10"/>
<path d="M9.10781 8.88281H6.02781C5.73781 8.88281 5.50781 9.12281 5.50781 9.41281C5.50781 9.70281 5.73781 9.94281 6.02781 9.94281H7.02781V13.6628C7.02781 13.7928 7.07781 13.9328 7.17781 14.0228C7.26781 14.1228 7.40781 14.1728 7.53781 14.1728H7.64781C7.77781 14.1728 7.91781 14.1228 8.00781 14.0228C8.10781 13.9228 8.15781 13.7928 8.15781 13.6628V9.94281H9.10781C9.39781 9.94281 9.62781 9.70281 9.62781 9.41281C9.62781 9.12281 9.39781 8.88281 9.10781 8.88281Z" fill="#222222"/>
<path d="M16.32 13.1825H14.89V9.3825C14.89 9.0625 14.63 8.8125 14.32 8.8125C14.01 8.8125 13.75 9.0725 13.75 9.3825V13.6625C13.75 13.9225 13.96 14.1425 14.23 14.1425H16.32C16.58 14.1425 16.8 13.9325 16.8 13.6625C16.8 13.3925 16.59 13.1825 16.32 13.1825Z" fill="#222222"/>
<path d="M20.9094 13.3503L19.3094 11.2403L20.7494 9.79031C20.9494 9.59031 20.9494 9.27031 20.7494 9.08031C20.5494 8.88031 20.2394 8.88031 20.0394 9.08031L18.2494 10.8803V9.39031C18.2494 9.07031 17.9994 8.82031 17.6794 8.82031C17.3594 8.82031 17.1094 9.08031 17.1094 9.39031V13.6103C17.1094 13.9303 17.3694 14.1803 17.6794 14.1803C17.9894 14.1803 18.2494 13.9203 18.2494 13.6103V12.3103L18.5694 11.9803L20.0794 13.9803C20.2494 14.2103 20.5694 14.2503 20.7894 14.0803C21.0094 13.9103 21.0594 13.5903 20.8894 13.3603L20.9094 13.3503Z" fill="#222222"/>
<path d="M13.4054 13.4925L11.8654 9.2625C11.7654 9.0025 11.4854 8.8125 11.1454 8.8125C11.0654 8.8125 10.9754 8.8225 10.8954 8.8425C10.8154 8.8625 10.7454 8.8925 10.6854 8.9425C10.6254 8.9825 10.5654 9.0325 10.5154 9.0925C10.4854 9.1325 10.4554 9.1725 10.4354 9.2125C10.4154 9.2525 10.3454 9.4725 10.3154 9.5325L10.2854 9.6025L10.2554 9.6825L10.2154 9.7825L10.1754 9.8925L10.1354 10.0125L10.0854 10.1425L10.0354 10.2825L9.98543 10.4325L9.92543 10.5825L9.86543 10.7425L9.80543 10.9025L9.74543 11.0725L9.68543 11.2425L9.62543 11.4125L9.56543 11.5825L9.50543 11.7525L9.44543 11.9225L9.38543 12.0825L9.32543 12.2425L9.26543 12.4025L9.20543 12.5525L9.15543 12.6925L9.10543 12.8225L9.05543 12.9525L9.01543 13.0725L8.97543 13.1725L8.94543 13.2625L8.91543 13.3425L8.89543 13.4025L8.87543 13.4525V13.4825L8.85543 13.5025C8.76543 13.7725 8.90543 14.0625 9.16543 14.1525C9.43543 14.2425 9.72543 14.1025 9.81543 13.8425L10.0754 13.0925H12.1754L12.4354 13.8425C12.5254 14.1125 12.8154 14.2525 13.0854 14.1525C13.3554 14.0625 13.4854 13.7625 13.3954 13.5025L13.4054 13.4925ZM10.4154 12.1225L11.1254 10.0925H11.1454L11.8554 12.1225H10.4254H10.4154Z" fill="#222222"/>
</g>
<defs>
<clipPath id="clip0_98_4432">
<rect width="22.88" height="21.43" fill="white" transform="translate(2 2)"/>
</clipPath>
</defs>
</svg>
