<svg width="24" height="24" viewBox="0 0 24 24" fill="none" xmlns="http://www.w3.org/2000/svg">
<path fill-rule="evenodd" clip-rule="evenodd" d="M4.00136 4.81605C3.30043 4.81605 2.78397 5.38363 2.78397 5.99787V17.9979C2.78397 18.6121 3.30043 19.1797 4.00136 19.1797H20.0014C20.7023 19.1797 21.2188 18.6121 21.2188 17.9979V5.99787C21.2188 5.38363 20.7023 4.81605 20.0014 4.81605H4.00136ZM1.21875 5.99787C1.21875 4.41211 2.50229 3.17969 4.00136 3.17969H20.0014C21.5004 3.17969 22.784 4.41211 22.784 5.99787V17.9979C22.784 19.5836 21.5004 20.8161 20.0014 20.8161H4.00136C2.50229 20.8161 1.21875 19.5836 1.21875 17.9979V5.99787Z" fill="#222222"/>
<path fill-rule="evenodd" clip-rule="evenodd" d="M1.35114 5.54275C1.59162 5.16727 2.07771 5.06669 2.43686 5.3181L12.0014 12.0133L21.566 5.3181C21.9252 5.06669 22.4113 5.16727 22.6517 5.54275C22.8922 5.91822 22.796 6.42641 22.4369 6.67781L12.4369 13.6778C12.1734 13.8622 11.8295 13.8622 11.566 13.6778L1.56602 6.67781C1.20687 6.42641 1.11067 5.91822 1.35114 5.54275Z" fill="#222222"/>
</svg>
