<svg width="20" height="20" viewBox="0 0 20 20" fill="none" xmlns="http://www.w3.org/2000/svg">
<path d="M9.9974 16.6667C10.4576 16.6667 10.8307 16.2936 10.8307 15.8333C10.8307 15.3731 10.4576 15 9.9974 15C9.53716 15 9.16406 15.3731 9.16406 15.8333C9.16406 16.2936 9.53716 16.6667 9.9974 16.6667Z" fill="#222222" stroke="#222222" stroke-linecap="round" stroke-linejoin="round"/>
<path d="M9.9974 10.8307C10.4576 10.8307 10.8307 10.4576 10.8307 9.9974C10.8307 9.53716 10.4576 9.16406 9.9974 9.16406C9.53716 9.16406 9.16406 9.53716 9.16406 9.9974C9.16406 10.4576 9.53716 10.8307 9.9974 10.8307Z" fill="#222222" stroke="#222222" stroke-linecap="round" stroke-linejoin="round"/>
<path d="M9.9974 5.0026C10.4576 5.0026 10.8307 4.62951 10.8307 4.16927C10.8307 3.70903 10.4576 3.33594 9.9974 3.33594C9.53716 3.33594 9.16406 3.70903 9.16406 4.16927C9.16406 4.62951 9.53716 5.0026 9.9974 5.0026Z" fill="#222222" stroke="#222222" stroke-linecap="round" stroke-linejoin="round"/>
</svg>
