<svg width="22" height="22" viewBox="0 0 22 22" fill="none" xmlns="http://www.w3.org/2000/svg">
<path fill-rule="evenodd" clip-rule="evenodd" d="M3.66791 9C3.36191 9 3.07451 9.12187 2.86743 9.32895C2.66143 9.53495 2.55197 9.80704 2.55197 10.0833V14.6667C2.55197 14.943 2.66143 15.2151 2.86743 15.421C3.07451 15.6281 3.36191 15.75 3.66791 15.75H5.50125C5.89745 15.75 6.21864 16.0858 6.21864 16.5C6.21864 16.9142 5.89745 17.25 5.50125 17.25H3.66791C3.00145 17.25 2.35622 16.9856 1.87567 16.505C1.39404 16.0234 1.11719 15.3628 1.11719 14.6667V10.0833C1.11719 9.38716 1.39404 8.72663 1.87567 8.24499C2.35622 7.76444 3.00145 7.5 3.66791 7.5H18.3346C19.001 7.5 19.6463 7.76444 20.1268 8.24499C20.6085 8.72663 20.8853 9.38716 20.8853 10.0833V14.6667C20.8853 15.3628 20.6085 16.0234 20.1268 16.505C19.6463 16.9856 19.001 17.25 18.3346 17.25H16.5012C16.105 17.25 15.7839 16.9142 15.7839 16.5C15.7839 16.0858 16.105 15.75 16.5012 15.75H18.3346C18.6406 15.75 18.928 15.6281 19.1351 15.421C19.3411 15.215 19.4505 14.943 19.4505 14.6667V10.0833C19.4505 9.80705 19.3411 9.53495 19.1351 9.32895C18.928 9.12187 18.6406 9 18.3346 9H3.66791Z" fill="#222222"/>
<path fill-rule="evenodd" clip-rule="evenodd" d="M4.78125 12.8359C4.78125 12.4217 5.10244 12.0859 5.49864 12.0859H16.4986C16.8948 12.0859 17.216 12.4217 17.216 12.8359V20.1693C17.216 20.5835 16.8948 20.9193 16.4986 20.9193H5.49864C5.10244 20.9193 4.78125 20.5835 4.78125 20.1693V12.8359ZM6.21603 13.5859V19.4193H15.7813V13.5859H6.21603Z" fill="#222222"/>
<path fill-rule="evenodd" clip-rule="evenodd" d="M4.78125 1.83594C4.78125 1.42172 5.10244 1.08594 5.49864 1.08594H16.4986C16.8948 1.08594 17.216 1.42172 17.216 1.83594V8.2526C17.216 8.66682 16.8948 9.0026 16.4986 9.0026C16.1024 9.0026 15.7813 8.66682 15.7813 8.2526V2.58594H6.21603V8.2526C6.21603 8.66682 5.89485 9.0026 5.49864 9.0026C5.10244 9.0026 4.78125 8.66682 4.78125 8.2526V1.83594Z" fill="#222222"/>
</svg>
