<svg width="22" height="22" viewBox="0 0 22 22" fill="none" xmlns="http://www.w3.org/2000/svg">
<path d="M16.5 20.1641C18.0188 20.1641 19.25 18.9328 19.25 17.4141C19.25 15.8953 18.0188 14.6641 16.5 14.6641C14.9812 14.6641 13.75 15.8953 13.75 17.4141C13.75 18.9328 14.9812 20.1641 16.5 20.1641Z" stroke="#222222" stroke-width="1.5" stroke-linecap="round" stroke-linejoin="round"/>
<path d="M5.5 13.75C7.01878 13.75 8.25 12.5188 8.25 11C8.25 9.48122 7.01878 8.25 5.5 8.25C3.98122 8.25 2.75 9.48122 2.75 11C2.75 12.5188 3.98122 13.75 5.5 13.75Z" stroke="#222222" stroke-width="1.5" stroke-linecap="round" stroke-linejoin="round"/>
<path d="M7.875 12.3828L14.1358 16.0311" stroke="#222222" stroke-width="1.5" stroke-linecap="round" stroke-linejoin="round"/>
<path d="M16.5 7.33594C18.0188 7.33594 19.25 6.10472 19.25 4.58594C19.25 3.06715 18.0188 1.83594 16.5 1.83594C14.9812 1.83594 13.75 3.06715 13.75 4.58594C13.75 6.10472 14.9812 7.33594 16.5 7.33594Z" stroke="#222222" stroke-width="1.5" stroke-linecap="round" stroke-linejoin="round"/>
<path d="M14.1267 5.96875L7.875 9.61708" stroke="#222222" stroke-width="1.5" stroke-linecap="round" stroke-linejoin="round"/>
</svg>
