<svg width="80" height="16" viewBox="0 0 80 16" fill="none" xmlns="http://www.w3.org/2000/svg">
<path fill-rule="evenodd" clip-rule="evenodd" d="M8 11.5L4 14L5 9.5L2 6.5L6 6L8 2L10 6L14 6.5L11 9.5L12 14L8 11.5Z" fill="#7DC3F6" stroke="#7DC3F6" stroke-linecap="round" stroke-linejoin="round"/>
<path fill-rule="evenodd" clip-rule="evenodd" d="M40 11.5L36 14L37 9.5L34 6.5L38 6L40 2L42 6L46 6.5L43 9.5L44 14L40 11.5Z" fill="#7DC3F6" stroke="#7DC3F6" stroke-linecap="round" stroke-linejoin="round"/>
<path fill-rule="evenodd" clip-rule="evenodd" d="M24 11.5L20 14L21 9.5L18 6.5L22 6L24 2L26 6L30 6.5L27 9.5L28 14L24 11.5Z" fill="#7DC3F6" stroke="#7DC3F6" stroke-linecap="round" stroke-linejoin="round"/>
<path fill-rule="evenodd" clip-rule="evenodd" d="M56 11.5L52 14L53 9.5L50 6.5L54 6L56 2L58 6L62 6.5L59 9.5L60 14L56 11.5Z" fill="#7DC3F6" stroke="#7DC3F6" stroke-linecap="round" stroke-linejoin="round"/>
<path fill-rule="evenodd" clip-rule="evenodd" d="M72 11.5L68 14L69 9.5L66 6.5L70 6L72 2L74 6L78 6.5L75 9.5L76 14L72 11.5Z" fill="#7DC3F6" stroke="#7DC3F6" stroke-linecap="round" stroke-linejoin="round"/>
</svg>
