<svg width="112" height="44" viewBox="0 0 112 44" fill="none" xmlns="http://www.w3.org/2000/svg">
<g clip-path="url(#clip0_98_4257)">
<path fill-rule="evenodd" clip-rule="evenodd" d="M16.7956 0.59605C12.8246 1.56832 8.80469 3.70731 8.80469 4.87403C8.80469 5.40878 8.95176 5.74907 9.19688 5.65185C15.7171 2.39475 16.4524 2.15168 20.7175 1.95723C25.2767 1.71416 29.0025 2.63781 32.7283 4.87403L34.2971 5.8463V4.82542C34.2971 3.56147 30.6693 1.66555 26.3552 0.644664C22.6784 -0.181764 20.2273 -0.230378 16.7956 0.59605Z" fill="white"/>
<path fill-rule="evenodd" clip-rule="evenodd" d="M16.5014 3.56093C14.0012 4.24151 8.80469 7.35277 8.80469 8.1792C8.80469 8.42227 9.78517 7.93613 10.9617 7.01248C16.8446 2.54004 26.9435 2.54004 32.2871 7.01248C33.9049 8.32504 34.7383 8.56811 33.8069 7.40138C32.7283 6.13744 29.0516 4.24151 26.3552 3.51231C23.1687 2.68588 19.639 2.68588 16.5014 3.56093Z" fill="white"/>
<path fill-rule="evenodd" clip-rule="evenodd" d="M40.5687 15.3307C39.098 15.5738 38.7548 16.2058 39.8824 16.5947C40.3236 16.7891 40.4707 17.2753 40.3236 17.8586C40.1275 18.6365 39.6863 18.8795 38.3627 18.8795C35.5193 18.8795 33.3132 22.3311 34.0976 25.4909C34.5388 27.241 36.4997 27.5327 38.0195 26.1229L39.1961 25.0534V26.0743C39.1961 26.9007 39.4902 27.1438 40.3726 27.1438C41.7943 27.1438 42.5297 26.2201 41.5982 25.6854C41.108 25.3451 41.108 24.5673 41.5982 21.213C41.9414 18.9767 42.3336 16.6919 42.4807 16.0599C42.6277 15.4766 42.5297 15.0391 42.3336 15.0391C42.0885 15.0877 41.3041 15.2335 40.5687 15.3307ZM39.6863 21.0185C39.6863 23.595 37.1371 26.6091 36.2056 25.1507C35.6173 24.227 35.6663 23.9839 36.4507 22.0394C37.039 20.7268 37.4802 20.3379 38.4117 20.3379C39.147 20.3379 39.6863 20.6296 39.6863 21.0185Z" fill="white"/>
<path fill-rule="evenodd" clip-rule="evenodd" d="M0.322308 16.7841C-0.167931 17.2702 -0.0698832 19.3606 0.420356 19.3606C0.665475 19.3606 0.959619 19.0203 1.15571 18.6314C1.30279 18.2425 1.89107 17.9022 2.47936 17.9022C3.16569 17.9022 3.41081 18.1453 3.26374 18.5828C3.11667 18.9717 2.82253 20.6246 2.62643 22.2774C2.43034 23.9789 2.03814 25.3887 1.64595 25.5345C1.30279 25.6318 0.910595 26.0693 0.763523 26.4582C0.567427 26.9929 1.00864 27.1388 2.92057 27.1388C4.83251 27.1388 5.37177 26.9443 5.37177 26.4096C5.37177 26.0207 5.12665 25.6804 4.83251 25.6804C4.29324 25.6804 4.58739 20.1384 5.2247 18.5342C5.56786 17.6592 7.33273 17.7078 7.33273 18.6314C7.33273 20.3815 8.75442 18.6314 8.80344 16.7841C8.80344 16.3466 0.763523 16.298 0.322308 16.7841Z" fill="white"/>
<path fill-rule="evenodd" clip-rule="evenodd" d="M9.14724 19.2153C8.95115 19.3611 9.14724 19.75 9.53943 20.0417C10.0787 20.4792 10.1277 21.0626 9.78455 22.7641C9.09822 26.0212 9.19627 27.1393 10.0297 27.1393C10.8631 27.1393 11.0101 26.799 11.5004 24.2225C11.8436 22.2293 13.2162 20.2362 13.5594 21.1598C13.8535 22.0349 15.1772 21.9376 15.1772 21.1112C15.1772 20.7223 15.3243 20.0903 15.4713 19.6528C15.9125 18.4861 14.2457 18.6805 12.824 19.9445L11.6475 21.0626L11.9416 19.9445C12.2848 19.0208 12.1377 18.875 10.8631 18.875C10.0787 18.875 9.29431 19.0208 9.14724 19.2153Z" fill="white"/>
<path fill-rule="evenodd" clip-rule="evenodd" d="M17.976 19.4108C16.8484 20.0914 15.6719 22.4248 15.6719 24.1263C15.6719 26.6542 18.5643 27.9667 21.1135 26.6056C22.2901 26.0222 21.8489 25.0499 20.5252 25.4388C19.2996 25.8277 17.6328 25.293 17.6328 24.5152C17.6328 24.1263 18.4172 23.7374 19.3977 23.5915C22.3881 23.1054 23.9569 20.9664 22.4372 19.4594C21.7018 18.7302 19.2016 18.7302 17.976 19.4108ZM20.9665 21.1609C20.7704 22.1331 18.1231 23.0082 18.1231 22.0845C18.1231 21.2095 19.1526 20.3344 20.2311 20.3344C20.8194 20.3344 21.0645 20.6261 20.9665 21.1609Z" fill="white"/>
<path fill-rule="evenodd" clip-rule="evenodd" d="M24 19.3611C24 19.6528 24.2941 19.9931 24.6373 20.1389C25.1766 20.3334 25.2256 20.9654 24.7354 23.7363C24.1961 26.8962 24.1961 27.1393 25.0295 27.1393C25.9119 27.1393 26.108 26.7018 26.6963 23.9308C26.9905 22.3266 28.5592 20.3334 29.4907 20.3334C29.8338 20.3334 29.8829 21.4029 29.6868 23.7363L29.3436 27.1393H30.8143C32.285 27.1393 33.0204 25.9726 31.7948 25.5837C31.4026 25.4378 31.4026 24.6114 31.7458 22.7641C32.0399 21.3543 32.138 19.8473 31.9909 19.507C31.5987 18.4861 29.3436 18.7778 28.02 19.9445L26.8434 21.0626L27.1375 19.9445C27.4807 18.9722 27.3336 18.875 25.7649 18.875C24.7844 18.875 24 19.1181 24 19.3611Z" fill="white"/>
<path fill-rule="evenodd" clip-rule="evenodd" d="M43.365 19.3125C43.218 19.6042 43.365 19.9445 43.7572 20.1876C44.1004 20.382 44.7377 22.1807 45.228 24.1739C46.1594 28.1602 45.8653 29.0838 43.7572 29.0838C42.7768 29.0838 42.5807 29.2783 42.7768 30.0075C42.9238 30.7367 42.7277 31.0284 41.9434 31.1742C41.4041 31.2714 56.8956 31.3686 76.4562 31.32L111.999 31.2714L78.4171 31.0284C59.9351 30.8825 45.228 30.6394 45.7182 30.445C46.2084 30.2019 47.6301 27.9171 48.8557 25.3406C50.0813 22.7155 51.2579 20.4792 51.503 20.4306C51.7481 20.3334 51.9442 19.9445 51.9442 19.5556C51.9442 19.1181 51.405 18.875 50.2284 18.875C48.5126 18.875 48.1204 19.2639 48.9538 20.0903C49.1989 20.382 48.9538 21.4515 48.3655 22.7641L47.385 24.9517L46.9928 23.0071C46.3718 20.2524 45.6528 18.875 44.8358 18.875C44.1985 18.875 43.5611 19.0695 43.365 19.3125Z" fill="white"/>
<path fill-rule="evenodd" clip-rule="evenodd" d="M62.5854 19.4108C61.4578 20.0914 60.2812 22.4248 60.2812 24.1263C60.2812 26.6542 63.1737 27.9667 65.7229 26.6056C66.8995 26.0222 66.4583 25.0499 65.1346 25.4388C63.909 25.8277 62.2422 25.293 62.2422 24.5152C62.2422 24.1263 63.0266 23.7374 64.0071 23.5915C66.9975 23.1054 68.5663 20.9664 67.0465 19.4594C66.3112 18.7302 63.811 18.7302 62.5854 19.4108ZM65.5758 21.1609C65.3797 22.1331 62.7324 23.0082 62.7324 22.0845C62.7324 21.2095 63.7619 20.3344 64.8405 20.3344C65.4288 20.3344 65.6739 20.6261 65.5758 21.1609Z" fill="white"/>
<path fill-rule="evenodd" clip-rule="evenodd" d="M68.6172 19.6042C68.6172 19.9931 68.8623 20.3334 69.1564 20.3334C69.4996 20.3334 69.5486 21.3543 69.3525 23.4933C69.0584 26.2642 69.1074 26.7018 69.8428 26.9934C70.8233 27.3337 73.0784 26.2642 73.4215 25.292C73.5686 24.7572 73.4215 24.7086 72.5881 25.1461C71.1664 25.9239 70.8233 24.9517 71.4115 21.5487L71.9018 18.875H70.235C69.1074 18.875 68.6172 19.1181 68.6172 19.6042Z" fill="white"/>
<path fill-rule="evenodd" clip-rule="evenodd" d="M74.4939 21.1598C74.1998 22.4724 73.9056 24.3197 73.8566 25.3406C73.7585 26.9934 73.8566 27.1393 75.0822 27.1393C76.5529 27.1393 77.3863 26.2642 76.4549 25.6809C75.8666 25.3406 76.0136 22.2293 76.749 19.7014C76.9451 19.1181 76.749 18.875 76.0136 18.875C75.2783 18.875 74.9351 19.4097 74.4939 21.1598Z" fill="white"/>
<path fill-rule="evenodd" clip-rule="evenodd" d="M78.9062 19.2639C78.9062 19.4584 79.1514 19.8959 79.4455 20.1876C79.7887 20.5279 79.7887 21.5001 79.4455 23.5419C78.7592 27.1879 78.7592 27.1393 79.8377 27.1393C80.5731 27.1393 80.8182 26.6531 81.0633 24.9517C81.5045 22.2779 83.0243 20.1876 83.8086 21.3057C84.2499 21.9376 84.3479 21.9376 84.7891 21.3057C86.2108 19.1667 84.1028 17.8541 82.6321 19.9445L81.8477 21.014V19.9445C81.8477 19.0695 81.5535 18.875 80.377 18.875C79.5926 18.875 78.9062 19.0695 78.9062 19.2639Z" fill="white"/>
<path fill-rule="evenodd" clip-rule="evenodd" d="M86.8006 20.0453C85.3299 21.601 84.9377 24.3719 85.9672 25.9275C87.0457 27.5318 89.595 27.5804 91.4089 26.0248C93.1247 24.5664 93.664 21.212 92.3893 19.8509C91.1147 18.4411 88.2223 18.5383 86.8006 20.0453ZM90.9186 20.8718C91.5069 21.7954 90.6735 24.6636 89.644 25.247C87.536 26.3651 86.5065 23.108 88.2713 20.969C88.9577 20.1912 90.4774 20.1426 90.9186 20.8718Z" fill="white"/>
<path fill-rule="evenodd" clip-rule="evenodd" d="M94.5987 19.2639C94.5987 19.4584 94.8438 19.8959 95.138 20.1876C95.9223 20.9654 94.7458 28.938 93.8143 29.2783C92.3436 29.813 93.226 30.5422 95.3341 30.5422C97.4421 30.5422 98.1774 30.0075 97.0499 29.3269C96.8048 29.181 96.5597 28.5977 96.5597 28.0629C96.5597 27.3823 96.9028 27.1393 97.9813 27.1393C101.168 27.1393 103.815 22.9099 102.492 20.0417C101.805 18.5347 99.8933 18.4861 98.4716 19.9445L97.3931 21.0626L97.6872 19.9445C97.9323 19.0208 97.7362 18.875 96.2655 18.875C95.3341 18.875 94.5987 19.0695 94.5987 19.2639ZM100.776 21.0626C101.511 22.9099 99.7462 25.6809 97.9323 25.6809C97.0499 25.6809 96.9518 25.4864 97.246 24.1252C97.8343 21.0626 100.04 19.1667 100.776 21.0626Z" fill="white"/>
<path fill-rule="evenodd" clip-rule="evenodd" d="M105.626 20.1422C102.096 23.8854 104.988 28.9412 109.351 26.6564C110.822 25.8299 110.479 25.1007 108.812 25.441C107.881 25.6355 107.047 25.5382 106.606 25.198C105.626 24.3715 105.675 23.7395 106.802 23.7395C108.714 23.7395 110.773 22.6701 111.067 21.5033C111.754 18.781 107.832 17.8087 105.626 20.1422ZM109.204 21.163C109.008 22.1353 106.361 23.0103 106.361 22.0867C106.361 21.2117 107.39 20.3366 108.469 20.3366C109.057 20.3366 109.302 20.6283 109.204 21.163Z" fill="white"/>
<path fill-rule="evenodd" clip-rule="evenodd" d="M8.80469 35.8903C8.80469 36.7654 14.0012 39.828 16.6975 40.5086C20.0312 41.4322 23.0706 41.4322 26.3552 40.5572C29.0516 39.828 32.7283 37.9321 33.8069 36.6681C34.7383 35.5014 33.9049 35.7445 32.2871 37.057C26.9435 41.5295 16.8446 41.5295 10.9617 37.057C9.78517 36.1334 8.80469 35.6472 8.80469 35.8903Z" fill="white"/>
<path fill-rule="evenodd" clip-rule="evenodd" d="M8.80469 39.2474C8.80469 40.56 13.7561 42.8935 18.2173 43.7199C22.3353 44.4491 26.9435 43.7685 31.3067 41.7267C33.5618 40.6572 34.2971 40.0739 34.2971 39.2961V38.2266L32.7283 39.1988C29.0025 41.435 25.2767 42.3587 20.7175 42.1156C16.4524 41.9212 15.7171 41.6781 9.19688 38.421C8.95176 38.3238 8.80469 38.6641 8.80469 39.2474Z" fill="white"/>
</g>
<defs>
<clipPath id="clip0_98_4257">
<rect width="112" height="44" fill="white"/>
</clipPath>
</defs>
</svg>
