<svg width="14" height="14" viewBox="0 0 14 14" fill="none" xmlns="http://www.w3.org/2000/svg">
<g clip-path="url(#clip0_98_14814)">
<path d="M13.4193 11.0833C13.4193 11.3928 13.2964 11.6895 13.0776 11.9083C12.8588 12.1271 12.562 12.25 12.2526 12.25H1.7526C1.44318 12.25 1.14644 12.1271 0.927646 11.9083C0.708854 11.6895 0.585938 11.3928 0.585938 11.0833V4.66667C0.585938 4.35725 0.708854 4.0605 0.927646 3.84171C1.14644 3.62292 1.44318 3.5 1.7526 3.5H4.08594L5.2526 1.75H8.7526L9.91927 3.5H12.2526C12.562 3.5 12.8588 3.62292 13.0776 3.84171C13.2964 4.0605 13.4193 4.35725 13.4193 4.66667V11.0833Z" stroke="#CCCCCC" stroke-width="1.5" stroke-linecap="round" stroke-linejoin="round"/>
<path d="M6.9974 9.91667C8.28606 9.91667 9.33073 8.872 9.33073 7.58333C9.33073 6.29467 8.28606 5.25 6.9974 5.25C5.70873 5.25 4.66406 6.29467 4.66406 7.58333C4.66406 8.872 5.70873 9.91667 6.9974 9.91667Z" stroke="#CCCCCC" stroke-width="1.5" stroke-linecap="round" stroke-linejoin="round"/>
</g>
<defs>
<clipPath id="clip0_98_14814">
<rect width="14" height="14" fill="white"/>
</clipPath>
</defs>
</svg>
