<svg width="25" height="24" viewBox="0 0 25 24" fill="none" xmlns="http://www.w3.org/2000/svg">
<g clip-path="url(#clip0_98_14874)">
<path d="M21.51 4.61183C20.9993 4.10083 20.3929 3.69547 19.7254 3.41891C19.0579 3.14235 18.3425 3 17.62 3C16.8976 3 16.1821 3.14235 15.5147 3.41891C14.8472 3.69547 14.2408 4.10083 13.73 4.61183L12.67 5.67183L11.61 4.61183C10.5783 3.58013 9.17907 3.00053 7.72004 3.00053C6.26101 3.00053 4.86173 3.58013 3.83004 4.61183C2.79835 5.64352 2.21875 7.04279 2.21875 8.50183C2.21875 9.96086 2.79835 11.3601 3.83004 12.3918L4.89004 13.4518L12.67 21.2318L20.45 13.4518L21.51 12.3918C22.021 11.8811 22.4264 11.2746 22.703 10.6072C22.9795 9.93972 23.1219 9.22431 23.1219 8.50183C23.1219 7.77934 22.9795 7.06393 22.703 6.39647C22.4264 5.72901 22.021 5.12258 21.51 4.61183Z" fill="#FF5757" stroke="white" stroke-width="2" stroke-linecap="round" stroke-linejoin="round"/>
</g>
<defs>
<clipPath id="clip0_98_14874">
<rect width="24" height="24" fill="white" transform="translate(0.671875)"/>
</clipPath>
</defs>
</svg>
