<svg width="34" height="34" viewBox="0 0 34 34" fill="none" xmlns="http://www.w3.org/2000/svg">
<path d="M25.5 17.4467V13.8885C25.5 13.4166 25.3122 12.9641 24.9779 12.6305C24.6436 12.2968 24.1901 12.1094 23.7174 12.1094H6.78261C6.30983 12.1094 5.85642 12.2968 5.52211 12.6305C5.18781 12.9641 5 13.4166 5 13.8885V26.3423C5 26.8142 5.18781 27.2667 5.52211 27.6004C5.85642 27.934 6.30983 28.1215 6.78261 28.1215H23.7174C24.1901 28.1215 24.6436 27.934 24.9779 27.6004C25.3122 27.2667 25.5 26.8142 25.5 26.3423V21.8945" stroke="#222222" stroke-width="1.5" stroke-linecap="round" stroke-linejoin="round"/>
<path d="M10.9688 7.66577L21.0761 5.03267C21.1897 5.00073 21.3086 4.99209 21.4256 5.00727C21.5426 5.02245 21.6553 5.06114 21.757 5.121C21.8586 5.18085 21.947 5.26064 22.0169 5.35554C22.0867 5.45044 22.1366 5.55848 22.1635 5.67315L22.6626 7.66577" stroke="#222222" stroke-width="1.5" stroke-linecap="round" stroke-linejoin="round"/>
<path d="M27.2853 17.4531H22.8288C22.3365 17.4531 21.9375 17.8514 21.9375 18.3427V21.0114C21.9375 21.5027 22.3365 21.9009 22.8288 21.9009H27.2853C27.7776 21.9009 28.1766 21.5027 28.1766 21.0114V18.3427C28.1766 17.8514 27.7776 17.4531 27.2853 17.4531Z" stroke="#222222" stroke-width="1.5" stroke-linecap="round" stroke-linejoin="round"/>
</svg>
