<svg width="34" height="34" viewBox="0 0 34 34" fill="none" xmlns="http://www.w3.org/2000/svg">
<path d="M5.9538 12.1165C5.71741 12.1165 5.49071 12.0228 5.32356 11.8559C5.1564 11.6891 5.0625 11.4628 5.0625 11.2269V5.88956C5.0625 5.65363 5.1564 5.42737 5.32356 5.26055C5.49071 5.09372 5.71741 5 5.9538 5H27.3451C27.5815 5 27.8082 5.09372 27.9753 5.26055C28.1425 5.42737 28.2364 5.65363 28.2364 5.88956V11.2269C28.2364 11.4628 28.1425 11.6891 27.9753 11.8559C27.8082 12.0228 27.5815 12.1165 27.3451 12.1165" stroke="#222222" stroke-width="1.5" stroke-linecap="round" stroke-linejoin="round"/>
<path d="M22.001 9.44531H11.3054C10.8131 9.44531 10.4141 9.84358 10.4141 10.3349V22.7887C10.4141 23.28 10.8131 23.6783 11.3054 23.6783H22.001C22.4933 23.6783 22.8923 23.28 22.8923 22.7887V10.3349C22.8923 9.84358 22.4933 9.44531 22.001 9.44531Z" stroke="#222222" stroke-width="1.5" stroke-linecap="round" stroke-linejoin="round"/>
<path d="M16.6427 19.228C18.1194 19.228 19.3166 18.0332 19.3166 16.5593C19.3166 15.0854 18.1194 13.8906 16.6427 13.8906C15.1659 13.8906 13.9688 15.0854 13.9688 16.5593C13.9688 18.0332 15.1659 19.228 16.6427 19.228Z" stroke="#222222" stroke-width="1.5" stroke-linecap="round" stroke-linejoin="round"/>
<path d="M10.4141 28.1328H22.8923" stroke="#222222" stroke-width="1.5" stroke-linecap="round" stroke-linejoin="round"/>
</svg>
