<svg width="30" height="30" viewBox="0 0 30 30" fill="none" xmlns="http://www.w3.org/2000/svg">
<path d="M21.25 3.74647C21.5783 3.41817 21.9681 3.15774 22.397 2.98006C22.826 2.80239 23.2857 2.71094 23.75 2.71094C24.2143 2.71094 24.674 2.80239 25.103 2.98006C25.5319 3.15774 25.9217 3.41817 26.25 3.74647C26.5783 4.07478 26.8387 4.46453 27.0164 4.89348C27.1941 5.32243 27.2855 5.78218 27.2855 6.24647C27.2855 6.71076 27.1941 7.17051 27.0164 7.59946C26.8387 8.02841 26.5783 8.41817 26.25 8.74647L9.375 25.6215L2.5 27.4965L4.375 20.6215L21.25 3.74647Z" stroke="#222222" stroke-width="2" stroke-linecap="round" stroke-linejoin="round"/>
</svg>
