<svg width="96" height="96" viewBox="0 0 96 96" fill="none" xmlns="http://www.w3.org/2000/svg">
<circle cx="48" cy="48" r="48" fill="white"/>
<path d="M77.3389 40.5314L70.8412 38.6777C70.4044 38.5567 69.9358 38.5608 69.5018 38.6893C69.0677 38.8178 68.6901 39.0643 68.4224 39.3939L63.9641 45.6711L39.491 34.8441C37.5613 33.8389 35.4078 33.22 33.1809 33.0308C30.954 32.8416 28.7075 33.0865 26.5982 33.7484C24.4889 34.4104 22.5678 35.4735 20.969 36.8633C19.3702 38.2532 18.1324 39.9364 17.3419 41.7952C17.0158 42.7338 17.1223 43.7489 17.638 44.6178C18.1538 45.4867 19.0367 46.1382 20.0928 46.4294L36.171 51.0635L37.7836 51.5269L40.819 60.753C40.9113 61.0718 41.0954 61.3637 41.3531 61.6C41.6109 61.8364 41.9336 62.0091 42.2893 62.1011L49.5933 64.2075C49.9766 64.3547 50.398 64.4053 50.8116 64.354C51.2251 64.3026 51.6148 64.1512 51.9379 63.9163C52.2611 63.6815 52.5053 63.3722 52.6439 63.0223C52.7824 62.6725 52.81 62.2955 52.7236 61.9326L51.2059 55.3606L52.2493 55.6555L67.9481 60.1632C68.4554 60.3303 68.995 60.4062 69.5356 60.3862C70.0762 60.3663 70.6069 60.251 71.0969 60.0472C71.5868 59.8433 72.0262 59.5549 72.3894 59.1987C72.7527 58.8425 73.0325 58.4257 73.2127 57.9725L78.7144 42.8063C78.8632 42.3427 78.8028 41.8458 78.546 41.4211C78.2892 40.9964 77.8562 40.6773 77.3389 40.5314Z" fill="#ECECEC"/>
</svg>
