<svg width="30" height="30" viewBox="0 0 30 30" fill="none" xmlns="http://www.w3.org/2000/svg">
<path d="M26.0516 5.76478C25.4132 5.12604 24.6551 4.61934 23.8208 4.27364C22.9865 3.92793 22.0922 3.75 21.1891 3.75C20.286 3.75 19.3917 3.92793 18.5574 4.27364C17.7231 4.61934 16.9651 5.12604 16.3266 5.76478L15.0016 7.08978L13.6766 5.76478C12.387 4.47517 10.6379 3.75067 8.81411 3.75067C6.99032 3.75067 5.24123 4.47517 3.95161 5.76478C2.662 7.0544 1.9375 8.80349 1.9375 10.6273C1.9375 12.4511 2.662 14.2002 3.95161 15.4898L5.27661 16.8148L15.0016 26.5398L24.7266 16.8148L26.0516 15.4898C26.6904 14.8513 27.1971 14.0933 27.5428 13.259C27.8885 12.4247 28.0664 11.5304 28.0664 10.6273C28.0664 9.72417 27.8885 8.82991 27.5428 7.99559C27.1971 7.16126 26.6904 6.40323 26.0516 5.76478V5.76478Z" stroke="#222222" stroke-width="2" stroke-linecap="round" stroke-linejoin="round"/>
</svg>
