<svg width="30" height="30" viewBox="0 0 30 30" fill="none" xmlns="http://www.w3.org/2000/svg">
<circle cx="15" cy="15" r="13.5" fill="white" stroke="#F7F7F7" stroke-width="3"/>
<g clip-path="url(#clip0_98_9565)">
<path d="M21.4193 19.0833C21.4193 19.3928 21.2964 19.6895 21.0776 19.9083C20.8588 20.1271 20.562 20.25 20.2526 20.25H9.7526C9.44318 20.25 9.14644 20.1271 8.92765 19.9083C8.70885 19.6895 8.58594 19.3928 8.58594 19.0833V12.6667C8.58594 12.3572 8.70885 12.0605 8.92765 11.8417C9.14644 11.6229 9.44318 11.5 9.7526 11.5H12.0859L13.2526 9.75H16.7526L17.9193 11.5H20.2526C20.562 11.5 20.8588 11.6229 21.0776 11.8417C21.2964 12.0605 21.4193 12.3572 21.4193 12.6667V19.0833Z" stroke="#CCCCCC" stroke-width="1.5" stroke-linecap="round" stroke-linejoin="round"/>
<path d="M14.9974 17.9167C16.2861 17.9167 17.3307 16.872 17.3307 15.5833C17.3307 14.2947 16.2861 13.25 14.9974 13.25C13.7087 13.25 12.6641 14.2947 12.6641 15.5833C12.6641 16.872 13.7087 17.9167 14.9974 17.9167Z" stroke="#CCCCCC" stroke-width="1.5" stroke-linecap="round" stroke-linejoin="round"/>
</g>
<defs>
<clipPath id="clip0_98_9565">
<rect width="14" height="14" fill="white" transform="translate(8 8)"/>
</clipPath>
</defs>
</svg>
